<svg width="24" height="24" viewBox="0 0 24 24" fill="none" xmlns="http://www.w3.org/2000/svg">
<path opacity="0.5" d="M6.3581 20.4364C7.3811 21 8.6065 21 11.0562 21H13.9569C18.2194 21 20.3512 21 21.6756 19.6815C23 18.3641 23 16.2424 23 12C23 7.75763 23 5.63587 21.6756 4.3185C20.3512 3 18.2194 3 13.958 3H11.0573C8.6076 3 7.3822 3 6.3603 3.56362C5.3373 4.12837 4.6883 5.16113 3.3892 7.23L2.639 8.4225C1.5467 10.1617 1 11.0325 1 12C1 12.9675 1.5467 13.8383 2.639 15.5775L3.387 16.77C4.6861 18.8377 5.3351 19.8716 6.3581 20.4364Z" fill="#44D1FD" fill-opacity="0.7"/>
<path d="M11.3986 9.2556C11.3247 9.1767 11.2355 9.11341 11.1364 9.06952C11.0373 9.02563 10.9304 9.00203 10.8219 9.00012C10.7135 8.99822 10.6058 9.01806 10.5052 9.05845C10.4046 9.09884 10.3133 9.15896 10.2366 9.23521C10.1599 9.31147 10.0994 9.40231 10.0588 9.5023C10.0182 9.6023 9.99821 9.70941 10.0001 9.81724C10.002 9.92506 10.0258 10.0314 10.0699 10.1299C10.1141 10.2284 10.1777 10.3171 10.2571 10.3906L12.3786 12.5L10.2571 14.6094C10.1777 14.6829 10.1141 14.7716 10.0699 14.8701C10.0258 14.9686 10.002 15.0749 10.0001 15.1828C9.99821 15.2906 10.0182 15.3977 10.0588 15.4977C10.0994 15.5977 10.1599 15.6885 10.2366 15.7648C10.3133 15.841 10.4046 15.9012 10.5052 15.9416C10.6058 15.9819 10.7135 16.0018 10.8219 15.9999C10.9304 15.998 11.0373 15.9744 11.1364 15.9305C11.2355 15.8866 11.3247 15.8233 11.3986 15.7444L13.5201 13.635L15.6417 15.7444C15.7948 15.8863 15.9973 15.9635 16.2066 15.9598C16.4158 15.9561 16.6154 15.8719 16.7634 15.7247C16.9114 15.5776 16.9962 15.3791 16.9999 15.171C17.0036 14.963 16.9259 14.7616 16.7832 14.6094L14.6617 12.5L16.7832 10.3906C16.9259 10.2384 17.0036 10.037 16.9999 9.82897C16.9962 9.62092 16.9114 9.42241 16.7634 9.27528C16.6154 9.12814 16.4158 9.04386 16.2066 9.04019C15.9973 9.03652 15.7948 9.11375 15.6417 9.2556L13.5201 11.365L11.3986 9.2556Z" fill="#44D1FD" fill-opacity="0.7"/>
</svg>
