<svg width="46" height="46" viewBox="0 0 46 46" fill="none" xmlns="http://www.w3.org/2000/svg">
<circle cx="23" cy="23" r="23" fill="#44D1FD" fill-opacity="0.7"/>
<path d="M23 28.6504L19.25 32.4004C18.8667 32.7837 18.4 32.9754 17.85 32.9754C17.3 32.9754 16.8333 32.7837 16.45 32.4004L13.6 29.5504C13.2167 29.1671 13.025 28.7004 13.025 28.1504C13.025 27.6004 13.2167 27.1337 13.6 26.7504L17.35 23.0004L13.6 19.2504C13.2167 18.8671 13.025 18.4004 13.025 17.8504C13.025 17.3004 13.2167 16.8337 13.6 16.4504L16.45 13.6004C16.8333 13.2171 17.3 13.0254 17.85 13.0254C18.4 13.0254 18.8667 13.2171 19.25 13.6004L23 17.3504L26.75 13.6004C27.1333 13.2171 27.6 13.0254 28.15 13.0254C28.7 13.0254 29.1667 13.2171 29.55 13.6004L32.4 16.4504C32.7833 16.8337 32.975 17.3004 32.975 17.8504C32.975 18.4004 32.7833 18.8671 32.4 19.2504L28.65 23.0004L32.4 26.7504C32.7833 27.1337 32.975 27.6004 32.975 28.1504C32.975 28.7004 32.7833 29.1671 32.4 29.5504L29.55 32.4004C29.1667 32.7837 28.7 32.9754 28.15 32.9754C27.6 32.9754 27.1333 32.7837 26.75 32.4004L23 28.6504ZM23 22.0004C23.2833 22.0004 23.5208 21.9046 23.7125 21.7129C23.9042 21.5212 24 21.2837 24 21.0004C24 20.7171 23.9042 20.4796 23.7125 20.2879C23.5208 20.0962 23.2833 20.0004 23 20.0004C22.7167 20.0004 22.4792 20.0962 22.2875 20.2879C22.0958 20.4796 22 20.7171 22 21.0004C22 21.2837 22.0958 21.5212 22.2875 21.7129C22.4792 21.9046 22.7167 22.0004 23 22.0004ZM18.75 21.6004L21.6 18.7504L17.85 15.0004L15 17.8504L18.75 21.6004ZM21 24.0004C21.2833 24.0004 21.5208 23.9046 21.7125 23.7129C21.9042 23.5212 22 23.2837 22 23.0004C22 22.7171 21.9042 22.4796 21.7125 22.2879C21.5208 22.0962 21.2833 22.0004 21 22.0004C20.7167 22.0004 20.4792 22.0962 20.2875 22.2879C20.0958 22.4796 20 22.7171 20 23.0004C20 23.2837 20.0958 23.5212 20.2875 23.7129C20.4792 23.9046 20.7167 24.0004 21 24.0004ZM23 26.0004C23.2833 26.0004 23.5208 25.9046 23.7125 25.7129C23.9042 25.5212 24 25.2837 24 25.0004C24 24.7171 23.9042 24.4796 23.7125 24.2879C23.5208 24.0962 23.2833 24.0004 23 24.0004C22.7167 24.0004 22.4792 24.0962 22.2875 24.2879C22.0958 24.4796 22 24.7171 22 25.0004C22 25.2837 22.0958 25.5212 22.2875 25.7129C22.4792 25.9046 22.7167 26.0004 23 26.0004ZM25 24.0004C25.2833 24.0004 25.5208 23.9046 25.7125 23.7129C25.9042 23.5212 26 23.2837 26 23.0004C26 22.7171 25.9042 22.4796 25.7125 22.2879C25.5208 22.0962 25.2833 22.0004 25 22.0004C24.7167 22.0004 24.4792 22.0962 24.2875 22.2879C24.0958 22.4796 24 22.7171 24 23.0004C24 23.2837 24.0958 23.5212 24.2875 23.7129C24.4792 23.9046 24.7167 24.0004 25 24.0004ZM24.4 27.2504L28.15 31.0004L31 28.1504L27.25 24.4004L24.4 27.2504Z" fill="#E8EAED"/>
</svg>
