<svg width="30" height="30" viewBox="0 0 30 30" fill="none" xmlns="http://www.w3.org/2000/svg">
<circle cx="15" cy="15" r="15" fill="#44D1FD" fill-opacity="0.7"/>
<path d="M15 20.65L11.25 24.4C10.8667 24.7833 10.4 24.975 9.85002 24.975C9.30002 24.975 8.83336 24.7833 8.45002 24.4L5.60002 21.55C5.21669 21.1667 5.02502 20.7 5.02502 20.15C5.02502 19.6 5.21669 19.1333 5.60002 18.75L9.35002 15L5.60002 11.25C5.21669 10.8667 5.02502 10.4 5.02502 9.84999C5.02502 9.29999 5.21669 8.83333 5.60002 8.44999L8.45002 5.59999C8.83336 5.21666 9.30002 5.02499 9.85002 5.02499C10.4 5.02499 10.8667 5.21666 11.25 5.59999L15 9.34999L18.75 5.59999C19.1334 5.21666 19.6 5.02499 20.15 5.02499C20.7 5.02499 21.1667 5.21666 21.55 5.59999L24.4 8.44999C24.7834 8.83333 24.975 9.29999 24.975 9.84999C24.975 10.4 24.7834 10.8667 24.4 11.25L20.65 15L24.4 18.75C24.7834 19.1333 24.975 19.6 24.975 20.15C24.975 20.7 24.7834 21.1667 24.4 21.55L21.55 24.4C21.1667 24.7833 20.7 24.975 20.15 24.975C19.6 24.975 19.1334 24.7833 18.75 24.4L15 20.65ZM15 14C15.2834 14 15.5209 13.9042 15.7125 13.7125C15.9042 13.5208 16 13.2833 16 13C16 12.7167 15.9042 12.4792 15.7125 12.2875C15.5209 12.0958 15.2834 12 15 12C14.7167 12 14.4792 12.0958 14.2875 12.2875C14.0959 12.4792 14 12.7167 14 13C14 13.2833 14.0959 13.5208 14.2875 13.7125C14.4792 13.9042 14.7167 14 15 14ZM10.75 13.6L13.6 10.75L9.85002 6.99999L7.00002 9.84999L10.75 13.6ZM13 16C13.2834 16 13.5209 15.9042 13.7125 15.7125C13.9042 15.5208 14 15.2833 14 15C14 14.7167 13.9042 14.4792 13.7125 14.2875C13.5209 14.0958 13.2834 14 13 14C12.7167 14 12.4792 14.0958 12.2875 14.2875C12.0959 14.4792 12 14.7167 12 15C12 15.2833 12.0959 15.5208 12.2875 15.7125C12.4792 15.9042 12.7167 16 13 16ZM15 18C15.2834 18 15.5209 17.9042 15.7125 17.7125C15.9042 17.5208 16 17.2833 16 17C16 16.7167 15.9042 16.4792 15.7125 16.2875C15.5209 16.0958 15.2834 16 15 16C14.7167 16 14.4792 16.0958 14.2875 16.2875C14.0959 16.4792 14 16.7167 14 17C14 17.2833 14.0959 17.5208 14.2875 17.7125C14.4792 17.9042 14.7167 18 15 18ZM17 16C17.2834 16 17.5209 15.9042 17.7125 15.7125C17.9042 15.5208 18 15.2833 18 15C18 14.7167 17.9042 14.4792 17.7125 14.2875C17.5209 14.0958 17.2834 14 17 14C16.7167 14 16.4792 14.0958 16.2875 14.2875C16.0959 14.4792 16 14.7167 16 15C16 15.2833 16.0959 15.5208 16.2875 15.7125C16.4792 15.9042 16.7167 16 17 16ZM16.4 19.25L20.15 23L23 20.15L19.25 16.4L16.4 19.25Z" fill="#F5F5F5"/>
</svg>
