<svg width="251" height="250" viewBox="0 0 251 250" fill="none" xmlns="http://www.w3.org/2000/svg">
<path d="M250.01 125.029C250.004 193.989 194.042 249.942 125 249.937C55.9578 249.931 0.00441247 193.969 0.00986371 125.009C0.0153214 55.9671 55.9776 0.0137008 125.02 0.0191585C194.062 0.0246162 250.015 55.9869 250.01 125.029Z" fill="#F2FAFF"/>
<mask id="mask0_338_211" style="mask-type:luminance" maskUnits="userSpaceOnUse" x="0" y="0" width="250" height="250">
<path d="M249.978 124.995C249.972 194.013 194.018 249.958 124.993 249.952C55.9751 249.947 0.0216828 193.993 0.0271386 124.975C0.032595 55.9497 55.9949 0.00442343 125.012 0.00987922C194.038 0.0153356 249.983 55.9694 249.978 124.995Z" fill="white"/>
</mask>
<g mask="url(#mask0_338_211)">
<path d="M156.938 134.484C157.349 139.586 161.792 143.454 166.895 143.043C171.997 142.632 175.865 138.189 175.454 133.087C175.042 127.985 170.599 124.117 165.497 124.528C160.313 124.939 156.527 129.382 156.938 134.484Z" fill="#CC9079"/>
<path d="M195.032 218.177L195.349 379.632C195.349 379.632 160.702 402.259 109.106 400.363C57.5096 398.466 44.5094 376.74 44.5094 376.74C44.5094 376.74 40.8188 218.659 42.1355 217.013C43.5346 215.285 45.4314 163.113 120.316 167.727C195.118 172.423 195.032 218.177 195.032 218.177Z" fill="#44D1FD"/>
<path d="M114.22 241.624C114.632 241.048 128.622 230.516 128.622 230.516L143.516 242.696L131.585 224.591C131.585 224.591 130.351 220.147 127.471 223.932C124.672 227.8 114.22 241.624 114.22 241.624Z" fill="#44D1FD"/>
<path d="M112.904 243.845C112.739 243.845 112.629 243.763 112.575 243.599C112.328 243.352 94.0614 214.137 89.2076 197.596C84.1892 180.726 98.0968 175.049 98.1791 174.967C98.426 174.884 98.6729 174.967 98.7551 175.214C98.9197 175.461 98.7551 175.707 98.5082 175.79C98.0144 176.036 85.3412 181.302 90.0305 197.349C94.5553 212.491 110.435 238.496 112.986 242.611L128.212 222.204C128.376 222.04 128.705 221.957 128.87 222.122C129.034 222.286 129.117 222.533 128.952 222.78L113.315 243.681C113.205 243.791 113.068 243.845 112.904 243.845Z" fill="#609EF4"/>
<path d="M143.516 243.19C143.351 243.19 143.187 243.107 143.105 242.943L130.269 223.439C130.104 223.192 130.186 222.945 130.351 222.78C130.598 222.616 130.845 222.698 131.009 222.945L143.351 241.708C145.08 236.36 154.134 208.299 155.534 199.659C157.016 189.948 150.68 180.814 140.723 178.344C140.476 178.344 140.312 178.097 140.394 177.85C140.394 177.603 140.641 177.439 140.888 177.521C151.339 179.991 158.003 189.619 156.357 199.741C154.875 209.369 144.092 242.531 143.927 242.86C143.927 243.025 143.763 243.107 143.598 243.19C143.543 243.19 143.516 243.19 143.516 243.19Z" fill="#609EF4"/>
<path d="M98.1815 145.013L98.4248 189.615L128.459 220.229L138.994 195.954L138.914 169.127L98.1815 145.013Z" fill="#EEB399"/>
<path d="M103.94 167.479L138.913 178.92L138.994 193.156C119.491 190.686 103.94 167.479 103.94 167.479Z" fill="#CC957F"/>
<path d="M123.606 181.552L141.957 180.072C157.675 178.839 169.608 165.015 168.375 149.297L164.429 98.4413C163.196 82.7236 149.372 70.7903 133.655 72.0235L115.221 73.5032C99.5036 74.6541 87.6526 88.5603 88.8858 104.278L92.8317 155.134C93.9825 170.852 107.889 182.703 123.606 181.552Z" fill="#EEB399"/>
<path d="M130.112 120.986C130.194 122.797 129.454 124.36 128.466 124.442C127.561 124.442 126.656 122.961 126.656 121.068C126.574 119.175 127.315 117.694 128.22 117.612C129.207 117.612 130.03 119.093 130.112 120.986Z" fill="#231F20"/>
<path d="M159.161 120.988C159.161 122.799 158.502 124.362 157.515 124.445C156.527 124.444 155.705 122.963 155.622 121.07C155.54 119.178 156.281 117.697 157.269 117.614C158.256 117.614 159.079 119.096 159.161 120.988Z" fill="#231F20"/>
<path d="M136.2 144.522C134.472 144.522 132.661 143.863 131.263 142.711C129.452 141.147 128.218 138.843 127.889 136.21C127.889 135.963 128.054 135.716 128.301 135.716C128.548 135.634 128.794 135.798 128.794 136.045C129.123 138.514 130.193 140.654 131.839 141.971C133.649 143.534 136.035 144.028 138.093 143.37C140.15 142.63 141.796 140.655 142.537 138.104C143.195 135.882 143.195 133.578 142.867 130.78C142.373 125.513 141.386 120.246 139.905 115.144C139.823 114.897 139.988 114.651 140.152 114.568C140.399 114.486 140.646 114.651 140.728 114.898C142.291 120 143.278 125.349 143.772 130.698C144.018 133.249 144.183 135.882 143.442 138.351C142.619 141.231 140.726 143.37 138.339 144.193C137.681 144.412 136.968 144.522 136.2 144.522Z" fill="#B7745A"/>
<path d="M160.642 118.273C154.964 118.19 145.583 118.107 144.76 118.19C143.855 118.354 143.032 117.696 142.95 116.873C142.868 115.968 143.444 115.227 144.267 115.062C145.254 114.98 156.034 115.063 160.725 115.064C161.548 115.064 162.288 115.804 162.288 116.627C162.288 117.533 161.548 118.273 160.642 118.273Z" fill="#171E26"/>
<path d="M131.182 118.271C131.127 118.271 131.072 118.271 131.018 118.271C130.112 118.188 120.731 118.188 115.053 118.269C114.148 118.269 113.49 117.529 113.49 116.706C113.49 115.801 114.148 115.06 115.053 115.06C119.662 115.06 130.524 114.979 131.429 115.144C132.335 115.226 132.911 116.049 132.746 116.872C132.664 117.695 132.005 118.271 131.182 118.271Z" fill="#171E26"/>
<path d="M135.546 91.362C138.344 89.7164 141.965 90.5395 144.598 92.5147C147.149 94.4076 148.794 97.2879 150.275 100.168C151.838 103.213 153.484 106.505 156.446 108.316C157.763 109.056 159.244 109.55 160.478 110.538C161.713 111.525 162.536 112.924 163.276 114.323C164.757 117.039 166.32 120.002 166.32 123.129C169.201 118.685 172.163 114.159 173.892 109.14C175.621 104.12 176.115 98.4422 174.222 93.5046C173.482 91.5295 172.412 89.719 171.343 87.9908C170.026 85.8512 168.627 83.5469 166.488 82.2301C165.912 77.704 165.254 72.6842 163.115 68.5695C160.976 64.4548 156.286 61.2451 151.842 62.5614C146.246 58.6933 139.499 56.4709 132.751 56.3881C128.307 56.3054 123.534 57.2925 120.489 60.5016C119.666 61.4068 118.925 62.4765 117.773 62.7232C117.033 62.8878 116.374 62.6409 115.634 62.5585C109.38 61.1591 102.632 61.9815 96.8711 64.8612C93.3325 66.589 89.9583 69.3866 88.806 73.1719C88.2298 74.9 88.2296 76.7927 87.3243 78.3561C86.419 79.755 85.02 80.7424 83.7855 81.8944C80.0822 85.3503 78.8474 90.6991 78.6001 95.8011C78.353 99.4219 78.6818 103.454 81.068 106.252C81.8908 107.24 82.8782 108.063 83.7011 109.05C85.2644 111.272 85.4288 114.235 85.7577 116.868C86.4979 122.053 88.3079 126.99 91.1055 131.352C91.0235 127.649 91.353 123.863 92.7522 120.407C94.1514 116.951 96.7027 113.907 100.159 112.508C101.723 111.85 103.451 111.603 104.932 110.862C108.388 109.135 110.117 105.267 111.434 101.646C112.668 98.0257 113.903 94.0758 116.783 91.6073C119.17 89.5503 122.544 88.7276 125.671 89.057C128.88 89.3864 131.843 90.7033 134.394 92.5962C134.97 92.0202 134.805 91.8556 135.546 91.362Z" fill="#B5603A"/>
<path d="M82.6289 138.675C83.0399 143.859 87.4834 147.645 92.6677 147.234C97.7698 146.823 101.556 142.38 101.144 137.278C100.816 132.176 96.29 128.307 91.188 128.719C86.0859 129.13 82.3001 133.573 82.6289 138.675Z" fill="#EEB399"/>
<path d="M91.5983 143.531C91.5434 143.531 91.4885 143.531 91.4337 143.531C90.2816 143.202 88.8827 142.708 88.5537 141.391C88.3891 140.98 88.4715 140.486 88.4715 140.075C88.6362 138.758 88.9654 137.277 90.0353 136.372C90.9405 135.549 92.2572 135.384 93.2447 135.302C93.1899 135.192 93.135 135.11 93.0802 135.055C92.9705 134.781 92.8333 134.534 92.6688 134.315C92.2574 133.821 91.5991 133.574 90.9407 133.492C90.9407 133.492 90.9133 133.492 90.8584 133.491C90.2001 133.491 89.624 133.821 89.2125 134.232C89.0479 134.397 88.8011 134.397 88.6365 134.232C88.3896 134.067 88.3897 133.82 88.5543 133.574C89.1304 132.998 90.0356 132.669 90.9408 132.669C91.9283 132.669 92.7511 133.08 93.3271 133.739C93.574 133.985 93.7385 134.315 93.9031 134.562C94.0677 134.891 94.2322 135.22 94.4791 135.467C94.5614 135.549 94.6436 135.796 94.5613 135.961C94.479 136.125 94.3144 136.207 94.1498 136.207C92.8332 136.207 91.5165 136.289 90.6113 137.03C89.7883 137.771 89.5413 139.005 89.3767 140.157C89.3766 140.486 89.2943 140.898 89.3766 141.144C89.6234 141.967 90.7754 142.379 91.6806 142.626C91.9275 142.708 92.0921 142.955 92.0097 143.202C91.9274 143.367 91.7628 143.531 91.5983 143.531Z" fill="#B7745A"/>
<path d="M135.706 150.776C131.097 150.776 125.337 149.87 118.507 147.236C118.26 147.154 118.096 146.907 118.178 146.66C118.26 146.413 118.589 146.331 118.754 146.413C140.067 154.562 150.436 145.675 150.518 145.593C150.765 145.428 151.012 145.428 151.177 145.593C151.341 145.84 151.341 146.087 151.177 146.251C151.012 146.334 148.379 148.638 143.03 149.954C141.055 150.365 138.668 150.776 135.706 150.776Z" fill="#9C645A"/>
<path d="M100.076 122.63C99.4171 128.39 99.7458 134.15 98.8402 139.828C98.6755 140.98 98.2639 142.379 97.1119 142.626C95.7952 142.955 94.7255 141.556 94.2319 140.322C91.1053 133.656 89.7069 126.003 91.9294 119.008C92.8348 116.293 94.3162 113.742 96.2914 111.685C97.5259 110.286 101.641 106.418 103.78 106.912C106.413 107.489 103.78 110.698 103.039 112.179C101.311 115.47 100.488 119.009 100.076 122.63Z" fill="#B5603A"/>
<path d="M94.8935 96.5432L94.4822 95.7202C97.6093 94.2393 100.161 91.6884 101.724 88.6438C102.877 86.5043 103.535 84.0356 104.111 81.6492C104.852 78.9337 105.593 76.1359 107.074 73.6673C110.86 67.4134 119.336 64.6985 126.002 67.5792C132.667 70.4599 136.534 78.4424 134.559 85.5193L133.736 85.2724C135.547 78.6892 131.926 71.1182 125.673 68.4021C119.336 65.686 111.354 68.2364 107.815 74.0788C106.416 76.4651 105.675 79.1807 105.016 81.8962C104.358 84.2826 103.699 86.7512 102.547 89.0553C100.901 92.2645 98.1853 94.8976 94.8935 96.5432Z" fill="#8E472B"/>
<path d="M168.215 98.1122C163.607 96.3837 159.328 92.9272 155.707 88.154C152.498 83.7923 150.112 78.7724 148.055 73.9993C147.397 72.518 146.739 71.0368 145.587 69.9669C144.6 68.9793 142.954 68.3208 141.555 69.0613C140.814 69.3905 140.32 70.131 139.909 70.707C138.016 73.6694 137.275 77.2901 137.851 80.6641L136.946 80.8286C136.37 77.2077 137.193 73.3402 139.168 70.2133C139.58 69.555 140.238 68.7321 141.143 68.2384C142.872 67.3333 145.011 68.1564 146.245 69.3086C147.48 70.4608 148.138 72.1067 148.796 73.6702C150.935 78.361 153.239 83.2986 156.448 87.578C159.904 92.1866 164.1 95.5608 168.544 97.2893L168.215 98.1122Z" fill="#8E472B"/>
</g>
<path d="M179.644 218.34C180.055 216.777 180.796 215.296 181.619 213.979C185.899 206.902 193.223 201.801 201.288 200.238C209.435 198.757 218.157 200.815 224.658 205.836C226.468 207.152 228.196 208.963 228.607 211.185C229.019 214.23 226.632 217.192 223.669 217.85C220.707 218.59 217.58 217.274 215.523 215.052C218.485 216.862 218.814 221.717 216.263 224.186C213.711 226.572 209.185 226.16 206.882 223.527C208.033 224.926 208.774 226.654 208.692 228.382C208.609 230.193 207.457 231.921 205.729 232.414C204.577 232.743 203.342 232.414 202.19 232.167C199.831 231.563 197.472 230.96 195.113 230.356C189.929 229.039 188.036 237.35 183.345 234.223C179.067 231.425 178.491 222.619 179.644 218.34Z" fill="#EEB399"/>
<path d="M216.017 215.546C216.017 215.546 210.092 205.588 197.831 205.422" stroke="#B7745A" stroke-width="1.1" stroke-linecap="round" stroke-linejoin="round"/>
<path d="M207.375 224.103C207.375 224.103 199.558 214.639 188.778 214.309" stroke="#B7745A" stroke-width="1.1" stroke-linecap="round" stroke-linejoin="round"/>
<path d="M66.9874 216.521C66.4938 214.958 65.8356 213.476 65.0128 212.16C60.7343 205.082 53.4108 199.98 45.2641 198.415C37.1997 196.851 28.4767 198.908 21.893 203.927C20.0825 205.326 18.3542 207.136 18.0249 209.358C17.5309 212.403 19.9171 215.365 22.8795 216.024C25.8419 216.682 29.0514 215.366 31.1089 213.144C28.0639 215.037 27.7344 219.892 30.2852 222.279C32.836 224.748 37.4443 224.336 39.6664 221.703C38.5965 223.02 37.7735 224.748 37.8557 226.558C38.0201 228.286 39.172 230.097 40.8178 230.591C42.0521 230.838 43.2865 230.591 44.4386 230.262C46.7977 229.659 49.1293 229.083 51.4335 228.534C56.618 227.218 58.51 235.53 63.2831 232.403C67.4801 229.605 68.1392 220.8 66.9874 216.521Z" fill="#EEB399"/>
<path d="M30.5327 213.638C30.5327 213.638 36.4585 203.764 48.7198 203.6" stroke="#B7745A" stroke-width="1.1" stroke-linecap="round" stroke-linejoin="round"/>
<path d="M39.2549 222.279C39.2549 222.279 46.991 212.817 57.7711 212.488" stroke="#B7745A" stroke-width="1.1" stroke-linecap="round" stroke-linejoin="round"/>
</svg>
