<svg width="238" height="188" viewBox="0 0 238 188" fill="none" xmlns="http://www.w3.org/2000/svg">
<path d="M206.037 27.5756H207.771L209.159 28.4428L210.373 29.8303L210.893 30.524V30.8708L212.28 29.6568L213.321 28.7897L214.188 28.4428H215.229L216.269 29.1365L217.137 30.1771L217.483 30.3505H219.044L220.258 29.4834L221.819 29.31L223.727 30.0037L225.808 31.0443L228.583 31.738L229.45 32.4317L230.491 36.0738L231.358 37.9815L232.399 39.369L234.306 40.7565L235 41.6236L235.173 41.9705V43.7048L234.653 45.0922L234.306 48.7343L233.613 50.6421L232.745 51.3358L232.399 51.5092H230.144L228.063 51.3358L226.675 52.0295L225.982 53.5904L225.461 55.845L224.594 57.2325L224.768 58.0996L225.808 60.8745L226.675 64.5166L227.889 72.1476L229.277 81.6863L230.491 87.9299L231.705 92.6125L233.266 96.9483L235 101.284L235.694 104.232V107.875L233.959 115.332L232.919 119.668L232.572 120.015L229.97 118.627L229.103 118.28L228.93 118.974L227.369 140.133L227.542 141.694L231.878 155.915L235.347 167.015L237.428 173.779V175.339L237.948 177.768L235.52 179.849L233.786 181.236L233.092 181.063L230.838 179.675L230.664 179.155L232.399 176.207L231.011 173.605L228.93 169.616L226.849 165.801L221.993 156.782L219.911 152.967L217.31 148.111L215.055 143.948L212.627 139.439L211.76 137.878L209.506 126.432L209.332 126.779L208.812 131.982L208.638 138.745L209.332 139.092L210.373 140.306L211.066 141.694L211.76 144.122L212.107 146.723V150.018L211.587 153.14L210.546 156.956L210.373 158.863L209.506 160.598L208.465 161.638L208.292 173.605L203.956 176.207L203.262 176.38L201.354 174.819L200.834 174.299L201.007 173.605L203.089 171.351L202.915 169.963L202.048 166.321L201.701 164.934L199.793 165.974L198.406 167.362L197.539 169.096L197.712 170.483L199.273 171.697V172.565L198.753 172.911L197.539 172.738L195.458 170.657L195.111 170.137V168.923L197.365 164.066L197.539 163.72L193.376 163.546L189.387 163.199L188.173 164.934L188 165.28V167.882L188.52 168.749V169.096L189.041 169.269H190.428L190.775 169.096H191.989L192.162 169.79L191.815 170.657L191.122 171.004L190.081 171.177H187.653L186.613 169.443L186.092 168.402V170.83L186.613 172.565V173.779L186.266 174.125H185.745L184.184 171.177L183.664 169.616L183.491 165.454L181.756 161.985L181.41 160.771L180.542 160.251V160.077L181.583 159.731L182.97 158.343L184.011 156.609L185.052 153.487L185.225 151.579L185.052 151.232L187.48 150.539L192.856 149.845L195.978 149.498H198.579L197.192 143.255L194.59 131.114L194.417 130.074L194.07 123.657V122.096L189.734 122.616H186.613L184.705 122.269L183.664 121.576L183.491 121.402V119.841L184.705 114.985L187.48 105.967L189.041 98.8561L192.856 80.8192L194.07 75.6162L194.244 75.2694L190.775 76.8302L189.387 77.3505L186.959 73.7085L178.982 61.5683L176.38 57.5793L176.9 59.4871L181.93 74.5756L182.797 77.524L185.919 86.7159L186.266 87.9299L186.613 90.0111V94.3469L186.092 96.9483L185.399 98.8561L184.011 101.631L182.45 103.712L180.542 105.62L177.941 107.354L175.166 108.568L170.657 109.956L153.487 115.679L150.539 116.72L147.59 117.587L129.9 123.483L126.952 124.524L124.004 125.391L107.875 130.768L105.967 131.461L103.018 132.328L84.8081 138.399L82.9004 139.092L79.952 139.959L61.7417 146.03L60.8745 146.376H60.3542L57.9262 139.266V138.745L56.8856 138.399V139.439L54.1107 138.745L43.8782 135.624L43.5314 135.45L44.572 138.399L45.9594 141.173L47.6937 143.948L48.5609 143.775L51.1624 142.561L51.8561 142.908L53.7638 145.336L57.4059 150.018L57.2325 151.232L54.8044 158.69L51.8561 167.708L49.428 175.166L47.5203 181.063L47.3469 182.277L48.214 182.624L50.1218 184.011V186.092L47 186.786H45.9594L41.9705 184.705L40.4096 184.011L40.583 182.103L40.7565 181.41L40.2362 181.236L40.4096 178.288L41.9705 163.026L42.1439 162.332L39.8893 163.72L36.941 165.107L33.4723 166.148L33.6458 167.015L36.941 174.125L39.5424 179.849L40.0627 181.41L38.8487 182.624L36.941 184.184L34.5129 186.439L33.1255 187.653L32.7786 188H31.3911L26.3616 186.613L18.5572 184.184L8.84502 181.063L5.20295 179.849L5.72325 180.889L6.59041 182.277V184.878L4.50922 185.225H3.64207L2.94834 184.878V184.531L2.25461 184.358L0.520295 183.317L0 182.97L0.346863 179.502L0.867159 176.727L1.21402 174.472L3.8155 173.779L5.02952 173.432L5.20295 172.911L9.53874 173.779L22.7196 176.727H23.2399L18.3838 172.911L15.6089 170.657L13.1808 168.749L11.2731 167.188L9.01845 165.28L7.631 164.066L6.41697 162.679L5.54982 160.598L5.37638 159.904V156.435L3.2952 156.089L1.73432 155.395L0.693727 154.181L0.520295 153.834V151.753L1.21402 148.458L3.64207 140.48L5.72325 134.583L7.80443 129.553L10.059 124.351L12.6605 119.148L14.5683 115.852L15.9557 113.771L18.2103 110.996L19.4244 109.609L20.6384 108.568L22.3727 107.875L23.5867 107.701H25.4945L25.1476 104.579V103.886L23.4133 103.539L19.9446 101.804L17.5166 100.07L15.9557 98.3358L15.0886 96.428L14.5683 94V92.6125L15.0886 90.3579L15.7823 88.9705L16.6494 87.9299L18.9041 86.5424L22.5461 84.8081L24.9742 83.4207L26.0148 83.0738L30.1771 82.9004L32.2583 82.0332L35.0332 80.6457L37.9815 79.7786V79.0849L36.5941 74.5756L34.3395 67.8118V67.4649L35.7269 67.6384L40.0627 68.679L45.0922 69.893L67.9852 75.4428L82.9004 79.0849L86.5424 79.952L91.572 81.166L106.487 84.8081L110.129 85.6753L112.557 86.1956L113.424 86.0221L115.679 83.4207L117.24 81.5129L119.148 79.2583L119.494 78.5646L120.188 77.8708L121.229 76.4834L121.923 75.7897L122.963 74.4022L123.657 73.7085L124.697 72.321L125.391 71.6273L126.432 70.2398L127.299 69.3727L129.38 66.9446L130.941 65.0369L132.849 62.7823L134.756 60.3542L136.491 58.2731L137.531 56.8856L138.225 56.1919L139.266 54.8044L139.959 54.1107L141 52.7232L141.694 52.0295L142.734 50.6421L143.601 49.7749L145.683 47.3469L148.804 43.5314L150.712 41.2767L151.406 40.4096L152.273 40.7565L155.915 42.6642L159.21 43.7048L162.332 44.2251H166.494L169.616 43.7048L170.657 43.3579L171.524 43.5314L172.218 45.2657L173.605 49.428L175.86 50.1218L176.553 50.4686L178.288 53.5904L179.155 53.9373L184.878 59.6605L186.266 60.8745L191.295 65.9041L191.989 65.7306L194.244 63.6494L196.325 61.5683L197.539 60.5277L195.978 60.0074L192.683 59.1402L189.561 52.0295L186.439 44.7454L182.624 35.9004L182.97 35.2066V34.8598L181.93 33.2989L180.716 30.1771V29.4834L182.45 28.7897L184.184 31.3911L185.052 30.8708L185.745 33.2989L186.439 33.6458L188.347 36.2472L189.041 34.6863L189.908 33.8192L190.948 33.2989H192.683L194.937 34.166L195.631 34.5129L195.804 33.2989L196.672 32.0849L198.059 31.2177L200.661 30.3505L202.568 29.6568L204.996 28.0959L206.037 27.5756Z" fill="#2F4F66"/>
<path d="M206.037 27.5756H207.771L209.159 28.4428L210.373 29.8303L210.893 30.524V30.8708L212.28 29.6568L213.321 28.7897L214.188 28.4428H215.229L216.269 29.1365L217.136 30.1771L217.483 30.3505H219.044L220.258 29.4834L221.819 29.31L223.727 30.0037L225.808 31.0443L228.583 31.738L229.45 32.4317L230.491 36.0738L231.358 37.9815L232.398 39.369L234.306 40.7565L235 41.6236L235.173 41.9705V43.7048L234.653 45.0922L234.306 48.7343L233.613 50.6421L232.745 51.3358L232.398 51.5092H230.144L228.063 51.3358L226.675 52.0295L225.982 53.5904L225.461 55.845L224.594 57.2325L224.767 58.0996L225.808 60.8745L226.675 64.5166L227.889 72.1476L229.277 81.6863L230.491 87.9299L231.705 92.6125L233.266 96.9483L235 101.284L235.694 104.232V107.875L233.959 115.332L232.919 119.668L232.572 120.015L229.97 118.627L229.103 118.28L228.93 118.974L227.369 140.133L227.542 141.694L231.878 155.915L235.347 167.015L237.428 173.779V175.339L237.948 177.768L235.52 179.849L233.786 181.236L233.092 181.063L230.838 179.675L230.664 179.155L232.398 176.207L231.011 173.605L228.93 169.616L226.849 165.801L221.993 156.782L219.911 152.967L217.31 148.111L215.055 143.948L212.627 139.439L211.76 137.878L209.506 126.432L209.332 126.779L208.812 131.982L208.638 138.745L209.332 139.092L210.373 140.306L211.066 141.694L211.76 144.122L212.107 146.723V150.018L211.587 153.14L210.546 156.956L210.373 158.863L209.506 160.598L208.465 161.638L208.291 173.605L203.956 176.207L203.262 176.38L201.354 174.819L200.834 174.299L201.007 173.605L203.089 171.351L202.915 169.963L202.048 166.321L201.701 164.934L199.793 165.974L198.406 167.362L197.539 169.096L197.712 170.483L199.273 171.697V172.565L198.753 172.911L197.539 172.738L195.458 170.657L195.111 170.137V168.923L197.365 164.066L197.539 163.72L193.376 163.546L189.387 163.199L188.173 164.934L188 165.28V167.882L188.52 168.749V169.096L189.041 169.269H190.428L190.775 169.096H191.989L192.162 169.79L191.815 170.657L191.122 171.004L190.081 171.177H187.653L186.613 169.443L186.092 168.402V170.83L186.613 172.565V173.779L186.266 174.125H185.745L184.184 171.177L183.664 169.616L183.491 165.454L181.756 161.985L181.41 160.771L180.542 160.251V160.077L181.583 159.731L182.97 158.343L184.011 156.609L185.052 153.487L185.225 151.579L185.052 151.232L187.48 150.539L192.856 149.845L195.978 149.498H198.579L197.192 143.255L194.59 131.114L194.417 130.074L194.07 123.657V122.096L189.734 122.616H186.613L184.705 122.269L183.664 121.576L183.491 121.402V119.841L184.705 114.985L187.48 105.967L189.041 98.8561L192.856 80.8192L194.07 75.6162L194.244 75.2694L190.775 76.8302L189.387 77.3505L186.959 73.7085L178.982 61.5683L176.38 57.5793L176.033 57.7528L174.299 52.3764V51.8561L172.391 52.0295L171.351 51.1624L172.218 50.4686L173.085 49.9483H173.432L173.605 49.428L175.86 50.1218L176.553 50.4686L178.288 53.5904L179.155 53.9373L184.878 59.6605L186.266 60.8745L191.295 65.9041L191.989 65.7306L194.244 63.6494L196.325 61.5683L197.539 60.5277L195.978 60.0074L192.683 59.1402L189.561 52.0295L186.439 44.7454L182.624 35.9004L182.97 35.2066V34.8598L181.93 33.2989L180.716 30.1771V29.4834L182.45 28.7897L184.184 31.3911L185.052 30.8708L185.745 33.2989L186.439 33.6458L188.347 36.2472L189.041 34.6863L189.908 33.8192L190.948 33.2989H192.683L194.937 34.166L195.631 34.5129L195.804 33.2989L196.672 32.0849L198.059 31.2177L200.66 30.3505L202.568 29.6568L204.996 28.0959L206.037 27.5756Z" fill="#DAEBFE"/>
<path d="M40.7565 87.583L41.1033 87.7565L45.4391 100.764L46.3063 103.712L48.3875 109.956L53.417 124.871L53.9373 126.432L54.8044 129.38L56.3653 133.889V134.236L56.8856 134.41V135.45L58.6199 134.41L59.3136 134.583V135.103L61.048 134.756L62.4354 135.45L62.7823 137.705L61.7417 139.439L61.5683 139.613H59.3136L58.6199 139.266H57.9262V138.745L56.8856 138.399V139.439L54.1107 138.745L43.8782 135.624L43.5314 135.45L44.572 138.399L45.9594 141.173L47.6937 143.948L48.5609 143.775L51.1624 142.561L51.8561 142.908L53.7638 145.336L57.4059 150.018L57.2325 151.232L54.8044 158.69L51.8561 167.708L49.428 175.166L47.5203 181.063L47.3469 182.277L48.214 182.624L50.1218 184.011V186.092L47 186.786H45.9594L41.9705 184.705L40.4096 184.011L40.583 182.103L40.7565 181.41L40.2362 181.236L40.4096 178.288L41.9705 163.026L42.1439 162.332L39.8893 163.72L36.941 165.107L33.4723 166.148L33.6458 167.015L36.941 174.125L39.5424 179.849L40.0627 181.41L38.8487 182.624L36.941 184.184L34.5129 186.439L33.1255 187.653L32.7786 188H31.3911L26.3616 186.613L18.5572 184.184L8.84502 181.063L5.20295 179.849L5.72325 180.889L6.59041 182.277V184.878L4.50922 185.225H3.64207L2.94834 184.878V184.531L2.25461 184.358L0.520295 183.317L0 182.97L0.346863 179.502L0.867159 176.727L1.21402 174.472L3.8155 173.779L5.02952 173.432L5.20295 172.911L9.53874 173.779L22.7196 176.727H23.2399L18.3838 172.911L15.6089 170.657L13.1808 168.749L11.2731 167.188L9.01845 165.28L7.631 164.066L6.41697 162.679L5.54982 160.598L5.37638 159.904V156.435L3.2952 156.089L1.73432 155.395L0.693727 154.181L0.520295 153.834V151.753L1.21402 148.458L3.64207 140.48L5.72325 134.583L7.80443 129.553L10.059 124.351L12.6605 119.148L14.5683 115.852L15.9557 113.771L18.2103 110.996L19.4244 109.609L20.6384 108.568L22.3727 107.875L23.5867 107.701H25.4945L25.1476 104.579V103.886L23.4133 103.539L22.7196 103.192L23.0664 103.018L21.679 99.5498L21.3321 98.3358V97.1218L22.0258 96.0812L24.107 95.0406L26.0148 94.6937H29.6568L33.1255 95.3875H35.0332L36.7675 94.6937L38.6753 93.4797L39.5424 92.0922L40.2362 89.8376L40.7565 87.583Z" fill="#95BEEB"/>
<path d="M142.387 28.6162H143.255L144.295 31.2177L144.815 32.952H145.162L145.336 33.8192H145.683L146.55 35.3801L148.111 37.2878L147.59 38.155L145.509 40.583L143.948 42.4908L142.041 44.7454L140.48 46.6531L138.572 48.9077L137.011 50.8155L134.583 53.7638L132.675 56.0184L131.114 57.9262L129.207 60.1808L127.646 62.0886L125.738 64.3432L124.177 66.2509L122.269 68.5055L120.708 70.4133L118.28 73.3616L116.373 75.6162L114.812 77.524L112.904 79.7786L111.69 81.3395H110.476L107.181 80.4723L103.192 79.6052L100.417 78.9114L95.7343 77.6974L92.4391 77.0037L89.3173 76.1365L86.0221 75.4428L83.5941 74.7491L80.2989 74.0553L77.8708 73.3616L74.5756 72.6679L72.1476 71.9742L68.8524 71.2804L66.4244 70.5867L63.1291 69.893L60.7011 69.1993L57.4059 68.5055L54.2841 67.6384L50.9889 66.9446L48.214 66.2509L45.2657 65.5572L42.4908 64.8635L39.5424 64.1697L37.8081 63.6494V63.3026L44.9188 60.8745L47.5203 60.0074L50.4686 59.1402L61.7417 55.3247L70.5867 52.3764L73.5351 51.5092L86.8893 47L94.1734 44.572L97.1218 43.7048L110.476 39.1956L116.199 37.2878L119.148 36.4207L133.022 31.738L142.387 28.6162Z" fill="#2F4F66"/>
<path d="M161.812 0H167.015L170.483 0.693727L173.432 1.73432L176.38 3.2952L178.461 4.85609L180.196 6.41697L182.103 8.49815L183.664 10.9262L185.052 13.7011L185.919 16.3026L186.439 18.5572L186.613 19.9446V24.2804L186.092 27.4022L185.052 30.6974L184.184 31.5646L182.45 28.9631L180.716 29.4834L181.756 32.2583L182.45 33.9926L183.317 35.0332L182.797 35.5535L183.317 37.1144L186.786 45.0922L190.948 54.8044L192.683 58.7934V59.1402L194.59 59.4871L197.712 60.3542L196.672 61.5683L195.284 62.7823L192.856 65.2103L191.815 66.0775L191.122 65.9041L185.225 60.0074L183.838 58.7934L178.982 53.9373L178.114 53.5904L176.38 50.4686L174.472 49.7749L173.432 49.428L171.524 43.7048L170.657 43.5314L169.616 43.8782L166.494 44.3985H162.332L159.21 43.8782L155.568 42.6642L152.273 40.9299L151.406 40.4096L150.539 39.5424L147.764 37.1144L146.029 34.8598L145.683 34.3395V33.8192H145.336L145.162 32.952H144.815L143.775 30.524L143.255 29.1365V28.6162L142.908 28.4428L142.214 24.2804V19.9446L142.734 16.8229L143.775 13.7011L145.162 10.9262L146.376 9.01845L148.284 6.76384L149.845 5.20295L152.446 3.2952L155.395 1.73432L159.037 0.520295L161.812 0Z" fill="#DAEBFE"/>
<path d="M220.258 116.546L223.727 116.72L227.022 117.413L228.756 118.107V121.402L227.369 140.133L227.542 141.694L231.878 155.915L235.347 167.015L237.428 173.779V175.339L237.948 177.768L235.52 179.849L233.786 181.236L233.092 181.063L230.838 179.675L230.664 179.155L232.399 176.207L231.011 173.605L228.93 169.616L226.849 165.801L221.993 156.782L219.911 152.967L217.31 148.111L215.055 143.948L212.627 139.439L211.76 137.878L209.506 126.432L209.332 126.779L208.812 131.982L208.638 138.745L209.332 139.092L210.373 140.306L211.066 141.694L211.76 144.122L212.107 146.723V150.018L211.587 153.14L210.546 156.956L210.373 158.863L209.506 160.598L208.465 161.638L208.291 173.605L203.956 176.207L203.262 176.38L201.354 174.819L200.834 174.299L201.007 173.605L203.089 171.351L202.915 169.963L202.048 166.321L201.701 164.934L199.793 165.974L198.406 167.362L197.539 169.096L197.712 170.483L199.273 171.697V172.565L198.753 172.911L197.539 172.738L195.458 170.657L195.111 170.137V168.923L197.365 164.066L197.539 163.72L193.376 163.546L189.387 163.199L188.173 164.934L188 165.28V167.882L188.52 168.749V169.096L189.041 169.269H190.428L190.775 169.096H191.989L192.162 169.79L191.815 170.657L191.122 171.004L190.081 171.177H187.653L186.613 169.443L186.092 168.402V170.83L186.613 172.565V173.779L186.266 174.125H185.745L184.184 171.177L183.664 169.616L183.491 165.454L181.756 161.985L181.41 160.771L180.542 160.251V160.077L181.583 159.731L182.97 158.343L184.011 156.609L185.052 153.487L185.225 151.579L185.052 151.232L187.48 150.539L192.856 149.845L195.978 149.498H198.579L197.192 143.255L194.59 131.114L194.417 130.074L194.244 126.779V122.096L194.417 121.923L201.007 120.708L209.332 118.801L216.616 117.066L218.351 116.72L220.258 116.546Z" fill="#577BC9"/>
<path d="M51.1624 142.561L51.8561 142.908L53.7638 145.336L57.4059 150.018L57.2325 151.232L54.8044 158.69L51.8561 167.708L49.428 175.166L47.5203 181.063L47.3469 182.277L48.214 182.624L50.1218 184.011V186.092L47 186.786H45.9594L41.9705 184.705L40.4096 184.011L40.583 182.103L40.7565 181.41L40.2362 181.236L40.4096 178.288L41.9705 163.026L42.1439 162.332L39.8893 163.72L36.941 165.107L33.4723 166.148L33.6458 167.015L36.941 174.125L39.5424 179.849L40.0627 181.41L38.8487 182.624L36.941 184.184L34.5129 186.439L33.1255 187.653L32.7786 188H31.3911L26.3616 186.613L18.5572 184.184L8.84502 181.063L5.20295 179.849L5.72325 180.889L6.59041 182.277V184.878L4.50922 185.225H3.64207L2.94834 184.878V184.531L2.25461 184.358L0.520295 183.317L0 182.97L0.346863 179.502L0.867159 176.727L1.21402 174.472L3.8155 173.779L5.02952 173.432L5.20295 172.911L9.53874 173.779L22.7196 176.727H23.2399L18.3838 172.911L15.6089 170.657L13.1808 168.749L11.2731 167.188L9.01845 165.28L7.631 164.066L6.41697 162.679L5.54982 160.598L5.37638 159.904V156.435L7.45756 156.609H9.71218L12.6605 156.089L15.6089 155.048L17.5166 154.181L19.4244 153.661L22.893 153.314L26.3616 153.487L27.5756 153.661L28.9631 152.793L42.8376 146.376L49.6015 143.255L51.1624 142.561Z" fill="#3A4559"/>
<path d="M206.037 27.5756H207.771L209.159 28.4428L210.373 29.8303L210.893 30.524V30.8708L212.28 29.6568L213.321 28.7897L214.188 28.4428H215.229L216.269 29.1365L217.137 30.1771L217.483 30.3505H219.044L220.258 29.4834L221.819 29.31L223.727 30.0037L225.808 31.0443L228.583 31.738L229.45 32.4317L230.491 36.0738L231.358 37.9815L232.399 39.369L234.306 40.7565L235 41.6236L235.173 41.9705V43.7048L234.653 45.0922L234.306 48.7343L233.613 50.6421L232.745 51.3358L232.399 51.5092H230.144L228.063 51.3358L226.675 52.0295L225.982 53.5904L225.461 55.845L224.594 57.2325L223.38 58.2731L222.166 58.7934H219.911L218.524 58.0996L217.483 56.8856L216.79 55.1513V52.5498L217.137 51.1624V48.214L217.657 47L218.524 46.3063L218.697 45.9594V44.0517L218.177 43.1845L217.31 42.1439L217.137 41.797V38.6753L216.616 37.1144L215.576 35.9004L212.107 34.166L211.24 34.5129L210.546 34.3395L208.985 34.8598L207.424 35.9004L206.037 37.4612L204.996 39.5424L204.476 41.2767V44.7454L205.17 47.5203L204.996 49.2546L204.476 50.4686H199.62L198.406 50.2952L196.672 48.0406L194.59 45.0922L192.336 41.9705L191.816 41.2767L191.295 39.7159L190.428 38.8487L189.387 37.9815L188.52 36.5941L188.694 35.2066L189.561 33.9926L190.948 33.2989H192.683L194.937 34.166L195.631 34.5129L195.804 33.2989L196.672 32.0849L198.059 31.2177L200.661 30.3505L202.568 29.6568L204.996 28.0959L206.037 27.5756Z" fill="#3A4559"/>
<path d="M37.4613 79.952H38.3284L39.0221 81.6863L40.9299 87.583L39.8893 91.7454L39.0221 93.3063L37.1144 94.6937L35.7269 95.3874L35.0332 95.5609H33.1255L29.6568 94.8671H26.0148L23.5867 95.3874L21.8524 96.428L21.5055 97.1218V98.3358L22.3727 100.937L23.0664 102.672V103.018L21.5055 102.672L18.9041 101.111L17.1697 99.7232L15.9557 98.3358L15.0886 96.428L14.5683 94V92.6125L15.0886 90.3579L15.7823 88.9705L16.6495 87.9299L18.9041 86.5424L22.5461 84.8081L24.9742 83.4207L26.0148 83.0738L30.1771 82.9004L32.2583 82.0332L35.0332 80.6457L37.4613 79.952Z" fill="#3A4559"/>
<path d="M182.624 34.6863L183.317 35.0332L182.797 35.5535L183.317 37.1144L186.786 45.0922L190.948 54.8044L192.683 58.7934V59.1402L194.59 59.4871L197.712 60.3542L196.672 61.5683L195.284 62.7823L192.856 65.2103L191.815 66.0775L191.122 65.9041L185.225 60.0074L183.838 58.7934L178.982 53.9373L178.114 53.5904L176.38 50.4686L174.472 49.7749L173.432 49.428L171.524 43.7048L171.697 43.0111L174.299 41.9705L176.727 40.583L178.982 38.8487L181.41 36.4207L182.624 34.6863Z" fill="#FDFDFD"/>
<path d="M194.937 149.672H198.753L200.14 155.915L202.221 165.454V166.321L201.875 165.801L201.701 164.934L199.793 165.974L198.406 167.362L197.539 169.096L197.712 170.483L199.273 171.697V172.565L198.753 172.911L197.539 172.738L195.458 170.657L195.111 170.137V168.922L197.365 164.066L197.539 163.72L193.376 163.546L189.387 163.199L188.173 164.934L188 165.28V167.882L188.52 168.749V169.096L189.041 169.269H190.428L190.775 169.096H191.989L192.162 169.79L191.815 170.657L191.122 171.004L190.081 171.177H187.653L186.613 169.443L186.092 168.402V170.83L186.613 172.565V173.779L186.266 174.125H185.745L184.184 171.177L183.664 169.616L183.491 165.454L181.756 161.985L181.41 160.771L180.542 160.251V160.077L181.583 159.731L182.97 158.343L184.011 156.609L185.052 153.487L185.225 151.579L185.052 151.232L187.48 150.539L192.856 149.845L194.937 149.672Z" fill="#3A4559"/>
<path d="M40.7564 87.583L41.1033 87.7565L45.4391 100.764L46.3062 103.712L46.1328 104.753L45.0922 106.487L36.4206 108.048L34.3395 108.395L31.5645 108.221L30.1771 108.048V104.406L30.6974 103.539L32.6051 102.498L33.1254 100.937L33.4723 95.5609L35.7269 95.214L37.4612 94.3469L39.0221 93.1328L39.8893 91.2251L40.7564 87.583Z" fill="#DAEBFE"/>
<path d="M212.107 33.9926L214.882 35.3801L215.922 36.0738L216.963 37.4613L217.31 38.6753V41.797L218.004 42.8376L218.524 43.5314L217.31 46.3063L215.922 48.214L214.535 49.428L213.841 49.7749L213.668 50.8155H211.413L209.159 50.6421L208.638 50.1218L206.904 49.0812L205.69 47.8672L205.343 47.3469L204.996 47.5203L204.303 44.7454V41.2768L205.17 38.6753L206.384 36.7675L207.771 35.3801L209.679 34.3395L210.893 34.1661L211.413 34.3395L212.107 33.9926Z" fill="#CB927A"/>
<path d="M49.9483 115.506H50.2952L53.9373 126.432L54.8044 129.38L56.1919 133.369L56.0184 134.063L42.4908 127.646V123.83L42.8376 120.362L43.1845 118.801H44.7454L48.214 119.148L48.7343 119.321L48.9077 118.454L49.9483 115.506Z" fill="#DAEBFE"/>
<path d="M26.0148 94.6937H29.6568L33.1255 95.3874L33.4723 95.5609V97.642L33.2989 100.937L32.7786 102.498L31.3912 103.365L30.6974 103.712L30.3506 104.406L30.1771 108.048L25.4945 107.701L25.1476 104.579V103.886L23.4133 103.539L22.7196 103.192L23.0664 103.018L21.679 99.5498L21.3321 98.3358V97.1218L22.0258 96.0812L24.107 95.0406L26.0148 94.6937Z" fill="#BBBDC0"/>
<path d="M164.066 12.6605H164.413L166.841 19.7712L170.31 30.1771V30.6974L166.148 32.0849H165.801L163.373 24.9742L161.292 18.5572V18.2103L158.69 19.0775L157.996 18.9041L156.782 15.0886L163.026 13.0074L164.066 12.6605Z" fill="#454545"/>
<path d="M151.406 40.4096L152.273 40.7565L155.915 42.6642L159.21 43.7048L162.332 44.2251H166.494L169.616 43.7048L170.657 43.3579L171.524 43.5314L171.871 44.2251V45.4391L168.922 47L165.801 48.0406L163.373 48.5609L161.812 48.7343H158.17L155.048 48.214L152.1 47.3469L148.804 45.786L147.764 45.0922L148.111 44.3985L149.672 42.4908L151.406 40.4096Z" fill="#2E4881"/>
<path d="M177.247 146.55L178.288 146.897L180.542 148.458L181.236 149.151L183.317 150.192L184.531 151.059L183.838 153.661L182.103 156.956L180.369 159.21L179.328 159.557H177.247L175.686 159.037L174.472 157.996L173.779 156.609L173.605 155.915V153.661L174.299 151.753L174.646 150.886V147.07L175.686 147.417L177.247 148.458V146.55Z" fill="#3A4559"/>
<path d="M41.797 162.332H42.1439L41.797 166.494L40.4096 180.022V181.41H40.0627L36.9409 174.646L34.3395 168.923L33.2989 166.668L33.4723 165.974L36.9409 164.934L40.583 163.199L41.797 162.332Z" fill="#DAEBFE"/>
<path d="M142.387 28.6162H143.255L144.295 31.2177L144.815 32.952H145.162L145.336 33.8192H145.683L146.55 35.3801L148.111 37.2878L147.59 38.155L145.509 40.583L144.469 41.9705L143.775 41.797L142.214 39.8893L140.653 37.4613L139.439 35.0332L138.572 32.4317L138.225 31.0443V30.0037L142.387 28.6162Z" fill="#2F4982"/>
<path d="M208.465 138.572L209.332 139.092L210.373 140.306L211.066 141.694L211.76 144.122L212.107 146.723V150.018L211.587 153.14L210.546 156.956L210.373 158.863L209.506 160.598L208.638 161.465H208.292V153.834H208.638L209.159 154.528L209.506 152.967V149.672L208.812 146.897L208.465 146.03V138.572Z" fill="#39455A"/>
<path d="M4.16236 173.605H5.02952L4.85609 175.166L4.16236 178.635V179.328L5.20295 179.675L5.72325 180.889L6.59041 182.277V184.878L4.50922 185.225H3.64207L2.94834 184.878V184.531L2.25461 184.358L0.520295 183.317L0 182.97L0.346863 179.502L0.867159 176.727L1.21402 174.472L3.8155 173.779L4.16236 173.605Z" fill="#32549B"/>
<path d="M236.561 174.646H237.255L237.948 177.768L235.52 179.849L233.786 181.236L233.092 181.063L230.838 179.675L230.664 179.155L232.399 176.38L233.959 175.86L236.561 174.646Z" fill="#3A4559"/>
<path d="M206.904 171.004H208.118L208.292 173.605L203.956 176.207L203.262 176.38L201.354 174.819L200.834 174.299L201.007 173.605L203.089 171.351L206.904 171.004Z" fill="#3A455A"/>
<path d="M58.6199 134.41L59.3136 134.583V135.103L61.048 134.756L62.4354 135.45L62.7823 137.705L61.7417 139.439L61.5683 139.613H59.3136L58.6199 139.266H57.9262V138.745L56.8856 138.399V135.45L58.6199 134.41Z" fill="#BBBDC0"/>
<path d="M173.432 49.428L174.993 49.7749L176.553 50.4686L178.288 53.5904L178.114 54.2841L176.033 56.1919L175.513 56.0184L174.299 52.3764V51.8561L172.391 52.0295L171.351 51.1624L172.218 50.4686L173.085 49.9483H173.432V49.428Z" fill="#CB947D"/>
<path d="M182.277 28.7897L182.97 29.4834L184.185 31.3911L185.052 30.8708L185.572 32.6052V33.6458L183.491 35.0332L182.97 34.8598L181.93 33.2989L180.716 30.1771V29.4834L182.277 28.7897Z" fill="#CB927B"/>
<path d="M218.351 43.5314H218.697L218.871 44.0517V45.9594L218.004 46.8266L217.483 47.5203L217.31 48.7343V51.1624L216.79 51.5092L213.668 50.8155V49.7749L215.576 48.3875L216.963 46.6531L218.004 44.3985L218.351 43.5314Z" fill="#FDFDFD"/>
<path d="M208.465 146.203L208.812 146.376L209.506 148.631L209.679 149.672V152.967L209.332 154.701L208.292 153.661V148.631L208.465 146.203Z" fill="#E8EDF3"/>
<path d="M205.17 47L205.863 47.8672L207.078 49.0812L209.159 50.2952V50.6421H204.649L204.823 49.2546L205.17 47Z" fill="#FDFDFD"/>
<path d="M180.022 159.731L180.196 160.077L181.063 160.424V161.985L180.369 162.506L179.328 162.332L178.635 161.638V160.598L178.808 160.424L177.594 160.251V160.077L180.022 159.731Z" fill="#96BCE8"/>
<path d="M189.908 38.5018L190.601 38.8487L191.469 39.7159L191.642 40.9299L190.948 40.0627L189.908 38.5018Z" fill="#F2F3F3"/>
</svg>
