<svg width="24" height="24" viewBox="0 0 24 24" fill="none" xmlns="http://www.w3.org/2000/svg">
<path d="M8 18.0908H16V16.0908H8V18.0908ZM8 14.0908H16V12.0908H8V14.0908ZM6 22.0908C5.45 22.0908 4.97917 21.895 4.5875 21.5033C4.19583 21.1117 4 20.6408 4 20.0908V4.09082C4 3.54082 4.19583 3.06999 4.5875 2.67832C4.97917 2.28665 5.45 2.09082 6 2.09082H14L20 8.09082V20.0908C20 20.6408 19.8042 21.1117 19.4125 21.5033C19.0208 21.895 18.55 22.0908 18 22.0908H6ZM13 9.09082V4.09082H6V20.0908H18V9.09082H13Z" fill="#454545"/>
</svg>
