<svg width="24" height="24" viewBox="0 0 24 24" fill="none" xmlns="http://www.w3.org/2000/svg">
<path d="M5.25 11.25H20.25C20.4489 11.25 20.6397 11.329 20.7803 11.4697C20.921 11.6103 21 11.8011 21 12C21 12.1989 20.921 12.3897 20.7803 12.5303C20.6397 12.671 20.4489 12.75 20.25 12.75H5.25C5.05109 12.75 4.86032 12.671 4.71967 12.5303C4.57902 12.3897 4.5 12.1989 4.5 12C4.5 11.8011 4.57902 11.6103 4.71967 11.4697C4.86032 11.329 5.05109 11.25 5.25 11.25Z" fill="#454545"/>
<path d="M5.75645 12L11.7868 17.8037C11.9233 17.9351 12 18.1133 12 18.2992C12 18.4851 11.9233 18.6633 11.7868 18.7947C11.6503 18.9262 11.4651 19 11.272 19C11.0789 19 10.8938 18.9262 10.7572 18.7947L4.2136 12.4955C4.14589 12.4305 4.09217 12.3533 4.05552 12.2683C4.01887 12.1832 4 12.0921 4 12C4 11.9079 4.01887 11.8168 4.05552 11.7317C4.09217 11.6467 4.14589 11.5695 4.2136 11.5045L10.7572 5.20526C10.8938 5.07383 11.0789 5 11.272 5C11.4651 5 11.6503 5.07383 11.7868 5.20526C11.9233 5.33668 12 5.51493 12 5.7008C12 5.88666 11.9233 6.06491 11.7868 6.19633L5.75645 12Z" fill="#454545"/>
</svg>
