<svg width="30" height="30" viewBox="0 0 30 30" fill="none" xmlns="http://www.w3.org/2000/svg">
<rect width="30" height="30" rx="8" fill="#F5F5F5"/>
<path d="M21 25C21.5304 25 22.0391 24.7893 22.4142 24.4142C22.7893 24.0391 23 23.5304 23 23V11L17 5H9C8.46957 5 7.96086 5.21071 7.58579 5.58579C7.21071 5.96086 7 6.46957 7 7V23C7 23.5304 7.21071 24.0391 7.58579 24.4142C7.96086 24.7893 8.46957 25 9 25H21ZM16 7L21 12H16V7ZM10 11H13V13H10V11ZM10 15H20V17H10V15ZM10 19H20V21H10V19Z" fill="#44D1FD" fill-opacity="0.7"/>
</svg>
